<svg xmlns="http://www.w3.org/2000/svg" viewBox="0 0 100 100" width="100" height="100">
  <path d="M85,70H15c-2.8,0-5-2.2-5-5V35c0-2.8,2.2-5,5-5h70c2.8,0,5,2.2,5,5v30C90,67.8,87.8,70,85,70z" fill="#fff" stroke="#000" stroke-width="3"/>
  <path d="M80,65H20c-1.1,0-2-0.9-2-2V37c0-1.1,0.9-2,2-2h60c1.1,0,2,0.9,2,2v26C82,64.1,81.1,65,80,65z" fill="#f0f0f0" stroke="#000" stroke-width="2"/>
  <path d="M25,35v30" stroke="#000" stroke-width="2"/>
  <path d="M75,35v30" stroke="#000" stroke-width="2"/>
  <path d="M15,55h70" stroke="#000" stroke-width="2"/>
</svg>
